<svg width="24" height="24" viewBox="0 0 24 24" fill="none" xmlns="http://www.w3.org/2000/svg"><path fill-rule="evenodd" clip-rule="evenodd" d="M11.1687 4.63741C11.2887 6.40926 12.7628 7.81482 14.5711 7.81482C16.3794 7.81482 17.9992 6.29 17.9992 4.40741C17.9992 2.52481 16.4651 1 14.5711 1C8.04913 1 5.14382 7.67 5.14382 12.0741C5.14382 16.4781 7.80059 21.2741 12 24C13.8255 23.5059 15.5309 22.2537 16.6108 20.3881C17.6992 18.5226 17.9306 16.427 17.4507 14.6126C16.7136 14.8085 16.0023 15.1322 15.3424 15.5667C15.0339 13.173 13.7997 11.0433 12 9.51852C10.0546 11.1626 8.78617 13.5052 8.60619 16.1289C8.04056 14.8085 7.71489 13.42 7.71489 12.0741C7.71489 10.1148 8.64904 6.46037 11.1687 4.63741ZM23.7926 13.7778C22.2071 14.2207 20.7331 15.3622 19.7903 17.0489C18.8476 18.7441 18.6419 20.6437 19.0619 22.2963C20.6474 21.8533 22.1214 20.7119 23.0642 19.0167C24.0069 17.3215 24.2126 15.4219 23.7926 13.7778ZM0.935844 19.0167C-0.00688061 17.33 -0.212566 15.4304 0.207375 13.7778C1.79287 14.2207 3.26694 15.3537 4.20967 17.0489C5.15239 18.7441 5.35808 20.6437 4.93814 22.2963C3.35265 21.8448 1.87857 20.7119 0.935844 19.0167Z" fill="white"/></svg>